<?xml version="1.0" encoding="utf-8"?>
<!-- Generator: Adobe Illustrator 16.0.0, SVG Export Plug-In . SVG Version: 6.00 Build 0)  -->
<!DOCTYPE svg PUBLIC "-//W3C//DTD SVG 1.1//EN" "http://www.w3.org/Graphics/SVG/1.1/DTD/svg11.dtd">
<svg version="1.1" id="Layer_1" xmlns="http://www.w3.org/2000/svg" xmlns:xlink="http://www.w3.org/1999/xlink" x="0px" y="0px"
	 width="23.538px" height="15.962px" viewBox="0 0 23.538 15.962" enable-background="new 0 0 23.538 15.962" xml:space="preserve">
<path fill="#EC4A4B" d="M11.721,9.203c0.892,1.41,2.13,2.52,3.821,2.52c0.379,0,0.754-0.037,1.124-0.104l-1.062,2.344h-3.884H7.836
	l-1.062-2.344c0.37,0.066,0.745,0.104,1.124,0.104C9.59,11.722,10.828,10.613,11.721,9.203 M11.721,3.481
	c0,0-1.223,6.241-3.822,6.241c-2.601,0-5.356-2.601-5.356-2.601l4.004,8.841h5.175h5.174l4.004-8.841c0,0-2.756,2.601-5.356,2.601
	C12.942,9.722,11.721,3.481,11.721,3.481"/>
<path fill="#EC4A4B" d="M1.432,3.816C0.641,3.816,0,4.457,0,5.248C0,6.038,0.641,6.68,1.432,6.68s1.431-0.642,1.431-1.432
	C2.862,4.457,2.223,3.816,1.432,3.816"/>
<path fill="#EC4A4B" d="M22.107,3.816c-0.791,0-1.432,0.641-1.432,1.432c0,0.79,0.641,1.432,1.432,1.432s1.431-0.642,1.431-1.432
	C23.538,4.457,22.898,3.816,22.107,3.816"/>
<path fill="#EC4A4B" d="M11.77,0c-0.791,0-1.432,0.641-1.432,1.431c0,0.791,0.641,1.432,1.432,1.432S13.2,2.222,13.2,1.431
	C13.2,0.641,12.561,0,11.77,0"/>
</svg>
