<?xml version="1.0" encoding="utf-8"?>
<!-- Generator: Adobe Illustrator 16.0.0, SVG Export Plug-In . SVG Version: 6.00 Build 0)  -->
<!DOCTYPE svg PUBLIC "-//W3C//DTD SVG 1.1//EN" "http://www.w3.org/Graphics/SVG/1.1/DTD/svg11.dtd">
<svg version="1.1" id="Layer_1" xmlns="http://www.w3.org/2000/svg" xmlns:xlink="http://www.w3.org/1999/xlink" x="0px" y="0px"
	 width="25.347px" height="25.348px" viewBox="0 0 25.347 25.348" enable-background="new 0 0 25.347 25.348" xml:space="preserve">
<path fill="#F4F5EF" d="M8.45,12.675c-0.001-2.333,1.89-4.226,4.224-4.226c2.333,0,4.224,1.892,4.224,4.225
	c0.001,2.334-1.892,4.225-4.224,4.225C10.341,16.898,8.45,15.008,8.45,12.675 M6.166,12.675c0,3.594,2.914,6.507,6.508,6.507
	s6.508-2.913,6.508-6.508c-0.002-3.595-2.914-6.509-6.509-6.509C9.079,6.166,6.166,9.08,6.166,12.675 M17.918,5.908
	c0,0.84,0.681,1.521,1.521,1.521c0.84,0,1.52-0.682,1.52-1.521s-0.681-1.521-1.521-1.521S17.918,5.068,17.918,5.908 M7.554,22.989
	c-1.236-0.056-1.907-0.262-2.354-0.435c-0.592-0.231-1.013-0.505-1.457-0.949C3.3,21.162,3.025,20.74,2.795,20.148
	c-0.174-0.446-0.38-1.117-0.437-2.353c-0.061-1.337-0.074-1.737-0.074-5.121c0-3.385,0.013-3.785,0.074-5.121
	C2.414,6.317,2.62,5.646,2.794,5.2c0.23-0.592,0.504-1.014,0.948-1.458C4.186,3.3,4.607,3.024,5.199,2.794
	c0.447-0.173,1.118-0.38,2.353-0.436c1.336-0.061,1.737-0.074,5.121-0.074c3.384-0.001,3.785,0.013,5.123,0.073
	c1.234,0.057,1.905,0.263,2.353,0.437c0.591,0.229,1.013,0.505,1.456,0.947c0.445,0.444,0.719,0.866,0.949,1.458
	c0.174,0.446,0.379,1.117,0.437,2.354c0.062,1.336,0.073,1.736,0.073,5.121c0.001,3.384-0.012,3.784-0.073,5.12
	c-0.056,1.236-0.263,1.907-0.437,2.354c-0.229,0.592-0.504,1.014-0.947,1.457c-0.443,0.444-0.865,0.718-1.457,0.949
	c-0.447,0.174-1.118,0.38-2.354,0.436c-1.336,0.062-1.736,0.074-5.122,0.074C9.291,23.063,8.89,23.052,7.554,22.989 M7.448,0.077
	c-1.349,0.062-2.27,0.276-3.076,0.589C3.538,0.99,2.832,1.424,2.127,2.128C1.422,2.833,0.989,3.539,0.666,4.373
	C0.352,5.18,0.138,6.101,0.077,7.449C0.015,8.802,0,9.232,0,12.675c0.001,3.441,0.015,3.874,0.077,5.226
	c0.062,1.349,0.276,2.271,0.59,3.075c0.323,0.834,0.757,1.541,1.462,2.245c0.704,0.705,1.411,1.138,2.244,1.462
	c0.806,0.313,1.727,0.526,3.077,0.589c1.351,0.061,1.783,0.076,5.225,0.076s3.873-0.016,5.225-0.077
	c1.349-0.062,2.271-0.276,3.075-0.589c0.834-0.324,1.541-0.757,2.246-1.462c0.703-0.705,1.137-1.411,1.461-2.245
	c0.313-0.807,0.527-1.728,0.588-3.076c0.063-1.352,0.076-1.783,0.076-5.225c0-3.442-0.014-3.874-0.076-5.226
	c-0.062-1.349-0.275-2.271-0.59-3.077c-0.323-0.833-0.756-1.54-1.461-2.244s-1.412-1.138-2.244-1.462
	c-0.807-0.313-1.729-0.527-3.077-0.589C16.548,0.016,16.115,0,12.673,0S8.8,0.016,7.448,0.077"/>
</svg>
