<svg id="Layer_1" data-name="Layer 1" xmlns="http://www.w3.org/2000/svg" viewBox="0 0 203.5 35.32"><rect y="30.53" width="39" height="3.17" style="fill:#009898"/><path d="M26.71,7.17,19.54,0,12.37,7.17l4.92,4.92-6.44,6.43L0,7.77v4.47L10.87,23Zm-9.86,0,2.69-2.69,2.69,2.69L19.54,9.85Z" style="fill:#009898"/><polygon points="28.39 18.68 24.03 14.33 21.79 16.57 28.38 23.14 39 12.63 39 8.17 28.39 18.68" style="fill:#009898"/><polygon points="32.66 27.59 39 27.59 39 27.5 39 16.67 30.35 25.3 32.66 27.59" style="fill:#009898"/><polygon points="0 16.69 0 27.59 10.92 27.59 0 16.69" style="fill:#009898"/><polygon points="15.43 27.59 28.16 27.59 19.45 18.96 13.12 25.3 15.43 27.59" style="fill:#009898"/><path d="M58.8,35.32a11,11,0,0,1-4.53-.93,8,8,0,0,1-3.38-2.77,7.83,7.83,0,0,1-1.28-4.56c0-.16,0-.31,0-.47s0-.28,0-.38h5.16s0,.11,0,.25,0,.26,0,.37a4.19,4.19,0,0,0,1.13,3.06A4.12,4.12,0,0,0,59,31.05a4.1,4.1,0,0,0,3.14-1,3.14,3.14,0,0,0,.89-2.15,3.2,3.2,0,0,0-.7-2.17,5.28,5.28,0,0,0-1.84-1.34A21.47,21.47,0,0,0,58,23.45c-.92-.28-1.84-.6-2.77-1a10.29,10.29,0,0,1-2.54-1.41,6.38,6.38,0,0,1-1.85-2.27,8.05,8.05,0,0,1-.69-3.57,6.73,6.73,0,0,1,1.24-4.17A7.43,7.43,0,0,1,54.67,8.6,11.75,11.75,0,0,1,59,7.79a11.23,11.23,0,0,1,4.32.81,6.94,6.94,0,0,1,3.14,2.54,7.75,7.75,0,0,1,1.18,4.48v.47H62.6v-.35a3.71,3.71,0,0,0-1-2.7,3.48,3.48,0,0,0-2.65-1,4.26,4.26,0,0,0-2.76.8,2.53,2.53,0,0,0-1,2,2.52,2.52,0,0,0,.7,1.86,5.49,5.49,0,0,0,1.84,1.17,26.77,26.77,0,0,0,2.54.87c.94.27,1.86.59,2.78.95a10.23,10.23,0,0,1,2.52,1.42,6.48,6.48,0,0,1,1.84,2.25,7.55,7.55,0,0,1,.7,3.47,8.86,8.86,0,0,1-1.2,4.9,7,7,0,0,1-3.32,2.7A13.11,13.11,0,0,1,58.8,35.32Z" style="fill:#2c2b30"/><path d="M81.92,35.32a9.47,9.47,0,0,1-6.69-2.23q-2.43-2.24-2.43-6.57V8.25h5V26.36a5,5,0,0,0,1.08,3.49,3.94,3.94,0,0,0,3.07,1.2A4,4,0,0,0,85,29.85a5,5,0,0,0,1.1-3.49V8.25h5V26.52q0,4.34-2.45,6.57A9.53,9.53,0,0,1,81.92,35.32Z" style="fill:#2c2b30"/><path d="M96.11,34.85V8.25h5v26.6Z" style="fill:#2c2b30"/><path d="M111,34.85V12.67h-6.59V8.25H122.6v4.42H116V34.85Z" style="fill:#2c2b30"/><path d="M126.32,34.85V8.25h16.94v4.42h-12V19h10.28v4.42H131.28v7H143.5v4.42Z" style="fill:#2c2b30"/><path d="M156.33,35.32a11,11,0,0,1-4.53-.93,8,8,0,0,1-3.38-2.77,7.83,7.83,0,0,1-1.28-4.56c0-.16,0-.31,0-.47s0-.28,0-.38h5.16s0,.11,0,.25,0,.26,0,.37a4.23,4.23,0,0,0,1.12,3.06,4.16,4.16,0,0,0,3.15,1.16,4.11,4.11,0,0,0,3.14-1,3.14,3.14,0,0,0,.89-2.15,3.2,3.2,0,0,0-.7-2.17,5.38,5.38,0,0,0-1.84-1.34,21.47,21.47,0,0,0-2.52-.95c-.92-.28-1.84-.6-2.77-1a10.35,10.35,0,0,1-2.55-1.41,6.47,6.47,0,0,1-1.84-2.27,8,8,0,0,1-.7-3.57,6.73,6.73,0,0,1,1.25-4.17A7.43,7.43,0,0,1,152.2,8.6a11.71,11.71,0,0,1,4.37-.81,11.23,11.23,0,0,1,4.32.81A7,7,0,0,1,164,11.14a7.75,7.75,0,0,1,1.18,4.48v.47h-5.08v-.35a3.71,3.71,0,0,0-.95-2.7,3.5,3.5,0,0,0-2.65-1,4.26,4.26,0,0,0-2.76.8,2.53,2.53,0,0,0-1,2,2.52,2.52,0,0,0,.7,1.86,5.49,5.49,0,0,0,1.84,1.17,26.77,26.77,0,0,0,2.54.87c.93.27,1.86.59,2.78.95a10.41,10.41,0,0,1,2.52,1.42A6.48,6.48,0,0,1,165,23.4a7.68,7.68,0,0,1,.7,3.47,8.86,8.86,0,0,1-1.2,4.9,7,7,0,0,1-3.32,2.7A13.11,13.11,0,0,1,156.33,35.32Z" style="fill:#2c2b30"/><path d="M169.72,34.85v-3h2.74v3Z" style="fill:#2c2b30"/><path d="M176.67,34.85V16.08h2.08l7,11.79a7.08,7.08,0,0,1,.48,1c.17.4.4.92.67,1.56l.08,0c0-.65,0-1.18-.05-1.58s0-.71,0-.91V16.08H189V34.85h-2l-7-12c-.15-.27-.31-.6-.51-1s-.42-.9-.69-1.52l-.09,0c0,.62.07,1.13.09,1.52s0,.72,0,1v12Z" style="fill:#2c2b30"/><path d="M193.42,34.85V16.08h2.41V32.66h7.67v2.19Z" style="fill:#2c2b30"/></svg>