<?xml version="1.0" encoding="utf-8"?>
<!-- Generator: Adobe Illustrator 16.0.0, SVG Export Plug-In . SVG Version: 6.00 Build 0)  -->
<!DOCTYPE svg PUBLIC "-//W3C//DTD SVG 1.1//EN" "http://www.w3.org/Graphics/SVG/1.1/DTD/svg11.dtd">
<svg version="1.1" id="Layer_1" xmlns="http://www.w3.org/2000/svg" xmlns:xlink="http://www.w3.org/1999/xlink" x="0px" y="0px"
	 width="20px" height="15.798px" viewBox="0 0 20 15.798" enable-background="new 0 0 20 15.798" xml:space="preserve">
<path fill="#EC4A4B" d="M13.942,2c1.047,0,2.086,0.397,2.853,1.089C17.571,3.792,18,4.729,18,5.729c0,1.59-1.396,3.487-4.039,5.487
	c-1.7,1.287-3.397,2.221-3.972,2.523c-0.573-0.305-2.275-1.248-3.961-2.531C3.393,9.205,2,7.309,2,5.729
	c0-1.001,0.429-1.938,1.206-2.641C3.971,2.397,5.011,2,6.059,2c0.986,0,1.893,0.324,2.693,0.964l1.249,0.996l1.248-0.997
	C12.049,2.324,12.954,2,13.942,2 M13.942,0C12.499,0,11.142,0.489,10,1.401C8.858,0.489,7.502,0,6.059,0
	C4.521,0,2.993,0.585,1.865,1.604C0.663,2.691,0,4.157,0,5.729c0,2.26,1.621,4.639,4.817,7.071c2.203,1.676,4.379,2.783,4.471,2.83
	c0.219,0.111,0.459,0.168,0.7,0.168c0.239,0,0.477-0.055,0.695-0.166c0.092-0.045,2.275-1.148,4.485-2.822
	C18.375,10.384,20,8.001,20,5.729c0-1.572-0.662-3.037-1.864-4.125C17.007,0.585,15.479,0,13.942,0"/>
</svg>
