<svg id="Layer_1" data-name="Layer 1" xmlns="http://www.w3.org/2000/svg" viewBox="0 0 58.85 13"><polygon points="6.83 0 8.95 4.28 13.67 4.97 10.25 8.3 11.06 13 6.83 10.78 2.61 13 3.42 8.3 0 4.97 4.72 4.28 6.83 0" style="fill:#f7b132"/><polygon points="21.89 0 24.01 4.28 28.73 4.97 25.31 8.3 26.12 13 21.89 10.78 17.67 13 18.48 8.3 15.06 4.97 19.78 4.28 21.89 0" style="fill:#f7b132"/><polygon points="36.95 0 39.06 4.28 43.79 4.97 40.37 8.3 41.18 13 36.95 10.78 32.73 13 33.54 8.3 30.12 4.97 34.84 4.28 36.95 0" style="fill:#f7b132"/><polygon points="52.01 0 54.12 4.28 58.85 4.97 55.43 8.3 56.24 13 52.01 10.78 47.79 13 48.59 8.3 45.18 4.97 49.9 4.28 52.01 0" style="fill:#f7b132"/></svg>